# xmcd
#
# Track frame offsets:
#	150
#	22900
#	44459
#	63999
#	94041
#	110808
#	139712
#	158627
#	181576
#	207766
#	226490
#	245562
#	276852
#	300519
#
# Disc length: 4327 seconds
#
# Revision: 0
# Processed by: cddbd v1.5.2PL0 Copyright (c) Steve Scherf et al.
# Submitted via: EasyCDDAExtractor 11.9.9.666
#
DISCID=b510e50e
DTITLE=Various Artist - Alligator Blues Classics
DYEAR=1900
DGENRE=
TTITLE0=Katie Webster - Those lonely, lonely nights
TTITLE1=Charlie Musselwhite - The blues overtook me
TTITLE2=Charles Brown - I cried last night
TTITLE3=Johnny Winter - Third Degree
TTITLE4=Kenny Neal - Going to the country
TTITLE5=Otis Rush - Hold that train
TTITLE6=Koko Taylor - Spellbound
TTITLE7=Dave Hole - Key to the highway
TTITLE8=Buddy Guy and Junior Wells - Medley: Baby what you want me to do - that'
TTITLE8=s allright
TTITLE9=Lonnie Brooks - A man's got to do what a man's got to do
TTITLE10=Tinsley Collins - As the years go passing by
TTITLE11=Albert Collins - Too many dirty dishes
TTITLE12=Saffire - I almost lost my mind
TTITLE13=Maurice John Vaughan - (Everything I do) Got to be funky
EXTD=
EXTT0=
EXTT1=
EXTT2=
EXTT3=
EXTT4=
EXTT5=
EXTT6=
EXTT7=
EXTT8=
EXTT9=
EXTT10=
EXTT11=
EXTT12=
EXTT13=
PLAYORDER=
